# low-poly bunny — 34 vertices, 56 triangles

# body bottom + low ring
v  0.00 -0.85  0.00
v  0.45 -0.55  0.25
v -0.45 -0.55  0.25
v  0.40 -0.55 -0.25
v -0.40 -0.55 -0.25

# paw / foot ground tips
v  0.38 -0.85  0.50
v -0.38 -0.85  0.50
v  0.48 -0.85 -0.38
v -0.48 -0.85 -0.38

# body mid ring
v  0.58  0.05  0.22
v -0.58  0.05  0.22
v  0.52  0.05 -0.24
v -0.52  0.05 -0.24

# neck ring
v  0.18  0.38  0.12
v -0.18  0.38  0.12
v  0.16  0.36 -0.18
v -0.16  0.36 -0.18

# tail
v  0.00 -0.30 -0.66

# head ring
v  0.00  0.50  0.54
v  0.25  0.46  0.40
v -0.25  0.46  0.40
v  0.28  0.58  0.06
v -0.28  0.58  0.06
v  0.00  0.52 -0.12
v  0.00  0.94  0.16

# left ear
v -0.12  0.88  0.08
v -0.26  0.88  0.08
v -0.30  1.60  0.00
v -0.12  1.60  0.00

# right ear
v  0.12  0.88  0.08
v  0.26  0.88  0.08
v  0.30  1.60  0.00
v  0.12  1.60  0.00

# throat centre (bridges neck to head ring)
v  0.00  0.45  0.10

# ── faces ────────────────────────────────────────────────────────────────────

# bottom fan (8)
f 1 2 6
f 1 6 7
f 1 7 3
f 1 3 5
f 1 5 9
f 1 9 8
f 1 8 4
f 1 4 2

# paw top surfaces (4)
f 2 3 7
f 2 7 6
f 4 8 9
f 4 9 5

# lower body sides — low ring to mid ring (8)
f 2 10 11
f 2 11 3
f 2 4 12
f 2 12 10
f 4 5 13
f 4 13 12
f 3 11 13
f 3 13 5

# upper body sides — mid ring to neck ring (8)
f 10 14 15
f 10 15 11
f 10 12 16
f 10 16 14
f 12 13 17
f 12 17 16
f 11 15 17
f 11 17 13

# neck top cap (2)
f 14 16 17
f 14 17 15

# tail (4)
f 4 5 18
f 4 18 12
f 5 13 18
f 12 18 13

# neck ring to throat centre (4)
f 14 34 15
f 15 34 17
f 17 34 16
f 16 34 14

# throat centre to head ring (6)
f 34 20 19
f 34 19 21
f 34 22 20
f 34 21 23
f 34 23 24
f 34 24 22

# head dome — ring to head top (6)
f 19 20 25
f 20 22 25
f 22 24 25
f 24 23 25
f 23 21 25
f 21 19 25

# ear base connections to head top (2)
f 25 26 27
f 25 30 31

# left ear (2)
f 26 27 28
f 26 28 29

# right ear (2)
f 30 31 32
f 30 32 33
