# Stylized Low-Poly Robot Model
# 119 vertices, 159 triangles
#
# Standard box vertex layout:
#   1=TLB (Top-Left-Back),  2=TRB (Top-Right-Back)
#   3=TRF (Top-Right-Front), 4=TLF (Top-Left-Front)
#   5=BLB (Bot-Left-Back),  6=BRB (Bot-Right-Back)
#   7=BRF (Bot-Right-Front), 8=BLF (Bot-Left-Front)
#
# Consistent outward CCW face winding for all boxes:
#   Top (+Y):    1 2 3,  1 3 4
#   Bottom (-Y): 5 8 7,  5 7 6
#   Front (+Z):  4 3 7,  4 7 8
#   Back (-Z):   2 1 5,  2 5 6
#   Left (-X):   1 5 8,  1 8 4
#   Right (+X):  3 7 6,  3 6 2

# ── 1. HEAD (v1..v8) ──────────────────────────────────────
v -0.28  0.50 -0.22
v  0.28  0.50 -0.22
v  0.28  0.50  0.22
v -0.28  0.50  0.22
v -0.28  0.08 -0.22
v  0.28  0.08 -0.22
v  0.28  0.08  0.22
v -0.28  0.08  0.22

# ── 2. ANTENNA SHAFT (v9..v16) ───────────────────────────
v -0.04  0.88 -0.04
v  0.04  0.88 -0.04
v  0.04  0.88  0.04
v -0.04  0.88  0.04
v -0.04  0.50 -0.04
v  0.04  0.50 -0.04
v  0.04  0.50  0.04
v -0.04  0.50  0.04

# ── 3. ANTENNA BALL (v17..v22) octahedron ───────────────
v  0.00  1.08  0.00
v  0.00  0.88  0.00
v  0.11  0.98  0.00
v  0.00  0.98  0.11
v -0.11  0.98  0.00
v  0.00  0.98 -0.11

# ── 4. LEFT EYE (v23..v30) ───────────────────────────────
v -0.22  0.43  0.22
v -0.08  0.43  0.22
v -0.08  0.43  0.30
v -0.22  0.43  0.30
v -0.22  0.30  0.22
v -0.08  0.30  0.22
v -0.08  0.30  0.30
v -0.22  0.30  0.30

# ── 5. RIGHT EYE (v31..v38) ──────────────────────────────
v  0.08  0.43  0.22
v  0.22  0.43  0.22
v  0.22  0.43  0.30
v  0.08  0.43  0.30
v  0.08  0.30  0.22
v  0.22  0.30  0.22
v  0.22  0.30  0.30
v  0.08  0.30  0.30

# ── 6. MOUTH BAR (v39..v46) ──────────────────────────────
v -0.16  0.21  0.22
v  0.16  0.21  0.22
v  0.16  0.21  0.27
v -0.16  0.21  0.27
v -0.16  0.11  0.22
v  0.16  0.11  0.22
v  0.16  0.11  0.27
v -0.16  0.11  0.27

# ── 7. TEETH (v47..v55) ──────────────────────────────────
v -0.12  0.12  0.27
v -0.05  0.12  0.27
v -0.085 0.19  0.32
v -0.035 0.12  0.27
v  0.035 0.12  0.27
v  0.00  0.19  0.32
v  0.05  0.12  0.27
v  0.12  0.12  0.27
v  0.085 0.19  0.32

# ── 8. TORSO (v56..v63) ──────────────────────────────────
v -0.38  0.08 -0.18
v  0.38  0.08 -0.18
v  0.38  0.08  0.18
v -0.38  0.08  0.18
v -0.38 -0.48 -0.18
v  0.38 -0.48 -0.18
v  0.38 -0.48  0.18
v -0.38 -0.48  0.18

# ── 9. LEFT ARM (v64..v71) ───────────────────────────────
v -0.62  0.04 -0.14
v -0.38  0.04 -0.14
v -0.38  0.04  0.14
v -0.62  0.04  0.14
v -0.62 -0.44 -0.14
v -0.38 -0.44 -0.14
v -0.38 -0.44  0.14
v -0.62 -0.44  0.14

# ── 10. RIGHT ARM (v72..v79) ─────────────────────────────
v  0.38  0.04 -0.14
v  0.62  0.04 -0.14
v  0.62  0.04  0.14
v  0.38  0.04  0.14
v  0.38 -0.44 -0.14
v  0.62 -0.44 -0.14
v  0.62 -0.44  0.14
v  0.38 -0.44  0.14

# ── 11. LEFT LEG (v80..v87) ──────────────────────────────
v -0.30 -0.48 -0.14
v -0.10 -0.48 -0.14
v -0.10 -0.48  0.14
v -0.30 -0.48  0.14
v -0.30 -0.90 -0.14
v -0.10 -0.90 -0.14
v -0.10 -0.90  0.14
v -0.30 -0.90  0.14

# ── 12. RIGHT LEG (v88..v95) ─────────────────────────────
v  0.10 -0.48 -0.14
v  0.30 -0.48 -0.14
v  0.30 -0.48  0.14
v  0.10 -0.48  0.14
v  0.10 -0.90 -0.14
v  0.30 -0.90 -0.14
v  0.30 -0.90  0.14
v  0.10 -0.90  0.14

# ── 13. LEFT FOOT (v96..v103) ────────────────────────────
v -0.34 -0.90 -0.10
v -0.08 -0.90 -0.10
v -0.08 -0.90  0.22
v -0.34 -0.90  0.22
v -0.34 -1.10 -0.10
v -0.08 -1.10 -0.10
v -0.08 -1.10  0.22
v -0.34 -1.10  0.22

# ── 14. RIGHT FOOT (v104..v111) ──────────────────────────
v  0.08 -0.90 -0.10
v  0.34 -0.90 -0.10
v  0.34 -0.90  0.22
v  0.08 -0.90  0.22
v  0.08 -1.10 -0.10
v  0.34 -1.10 -0.10
v  0.34 -1.10  0.22
v  0.08 -1.10  0.22

# ── 15. CHEST PLATE DETAIL (v112..v119) ──────────────────
v -0.22 -0.04  0.18
v  0.22 -0.04  0.18
v  0.22 -0.04  0.24
v -0.22 -0.04  0.24
v -0.22 -0.30  0.18
v  0.22 -0.30  0.18
v  0.22 -0.30  0.24
v -0.22 -0.30  0.24

# ── FACES ─────────────────────────────────────────────────

# 1. HEAD (v1..v8)
f 1 2 3
f 1 3 4
f 5 8 7
f 5 7 6
f 4 3 7
f 4 7 8
f 2 1 5
f 2 5 6
f 1 5 8
f 1 8 4
f 3 7 6
f 3 6 2

# 2. ANTENNA SHAFT (v9..v16)
f 9 10 11
f 9 11 12
f 4 3 7
f 4 7 8
f 10 9 13
f 10 13 14
f 9 13 16
f 9 16 12
f 11 15 14
f 11 14 10

# 3. ANTENNA BALL (v17..v22 octahedron)
f 17 19 20
f 17 20 21
f 17 21 22
f 17 22 19
f 18 20 19
f 18 21 20
f 18 22 21
f 18 19 22

# 4. LEFT EYE (v23..v30)
f 23 24 25
f 23 25 26
f 27 30 29
f 27 29 28
f 26 25 29
f 26 29 30
f 24 23 27
f 24 27 28
f 23 27 30
f 23 30 26
f 25 29 28
f 25 28 24

# 5. RIGHT EYE (v31..v38)
f 31 32 33
f 31 33 34
f 35 38 37
f 35 37 36
f 34 33 37
f 34 37 38
f 32 31 35
f 32 35 36
f 31 35 38
f 31 38 34
f 33 37 36
f 33 36 32

# 6. MOUTH BAR (v39..v46)
f 39 40 41
f 39 41 42
f 43 46 45
f 43 45 44
f 42 41 45
f 42 45 46
f 40 39 43
f 40 43 44
f 39 43 46
f 39 46 42
f 41 45 44
f 41 44 40

# 7. TEETH (v47..v55 spike triangles)
f 47 49 48
f 50 52 51
f 53 55 54

# 8. TORSO (v56..v63)
f 56 57 58
f 56 58 59
f 60 63 62
f 60 62 61
f 59 58 62
f 59 62 63
f 57 56 60
f 57 60 61
f 56 60 63
f 56 63 59
f 58 62 61
f 58 61 57

# 9. LEFT ARM (v64..v71)
f 64 65 66
f 64 66 67
f 68 71 70
f 68 70 69
f 67 66 70
f 67 70 71
f 65 64 68
f 65 68 69
f 64 68 71
f 64 71 67
f 66 70 69
f 66 69 65

# 10. RIGHT ARM (v72..v79)
f 72 73 74
f 72 74 75
f 76 79 78
f 76 78 77
f 75 74 78
f 75 78 79
f 73 72 76
f 73 76 77
f 72 76 79
f 72 79 75
f 74 78 77
f 74 77 73

# 11. LEFT LEG (v80..v87)
f 80 81 82
f 80 82 83
f 84 87 86
f 84 86 85
f 83 82 86
f 83 86 87
f 81 80 84
f 81 84 85
f 80 84 87
f 80 87 83
f 82 86 85
f 82 85 81

# 12. RIGHT LEG (v88..v95)
f 88 89 90
f 88 90 91
f 92 95 94
f 92 94 93
f 91 90 94
f 91 94 95
f 89 88 92
f 89 92 93
f 88 92 95
f 88 95 91
f 90 94 93
f 90 93 89

# 13. LEFT FOOT (v96..v103)
f 96 97 98
f 96 98 99
f 100 103 102
f 100 102 101
f 99 98 102
f 99 102 103
f 97 96 100
f 97 100 101
f 96 100 103
f 96 103 99
f 98 102 101
f 98 101 97

# 14. RIGHT FOOT (v104..v111)
f 104 105 106
f 104 106 107
f 108 111 110
f 108 110 109
f 107 106 110
f 107 110 111
f 105 104 108
f 105 108 109
f 104 108 111
f 104 111 107
f 106 110 109
f 106 109 105

# 15. CHEST PLATE DETAIL (v112..v119)
f 112 113 114
f 112 114 115
f 116 119 118
f 116 118 117
f 115 114 118
f 115 118 119
f 113 112 116
f 113 116 117
f 112 116 119
f 112 119 115
f 114 118 117
f 114 117 113
