# Suzanne (Blender Monkey Head) — 507 vertices, 500 quad faces (~1000 triangles)
# Centered at origin, scaled to +-1.
# Generated from alecjacobson/common-3d-test-models

v 0.320000 0.120000 0.560000
v -0.320000 0.120000 0.560000
v 0.365715 0.068571 0.502857
v -0.365714 0.068571 0.502857
v 0.400000 0.040000 0.422857
v -0.400000 0.040000 0.422857
v 0.257143 -0.017143 0.451429
v -0.257143 -0.017143 0.451429
v 0.257143 0.022857 0.525714
v -0.257143 0.022857 0.525714
v 0.257143 0.097142 0.571428
v -0.257143 0.097142 0.571428
v 0.200000 0.120000 0.582857
v -0.200000 0.120000 0.582857
v 0.148572 0.068571 0.542857
v -0.148571 0.068571 0.542857
v 0.114286 0.040000 0.474286
v -0.114285 0.040000 0.474286
v 0.057143 0.177142 0.480000
v -0.057142 0.177142 0.480000
v 0.102858 0.177142 0.542857
v -0.102857 0.177142 0.542857
v 0.177143 0.177142 0.582857
v -0.177143 0.177142 0.582857
v 0.200000 0.240000 0.582857
v -0.200000 0.240000 0.582857
v 0.148572 0.285714 0.542857
v -0.148571 0.285714 0.542857
v 0.114286 0.320000 0.474286
v -0.114285 0.320000 0.474286
v 0.257143 0.377143 0.451429
v -0.257143 0.377143 0.451429
v 0.257143 0.331429 0.525714
v -0.257143 0.331429 0.525714
v 0.257143 0.262857 0.571428
v -0.257143 0.262857 0.571428
v 0.320000 0.240000 0.560000
v -0.320000 0.240000 0.560000
v 0.365715 0.285714 0.502857
v -0.365714 0.285714 0.502857
v 0.400000 0.320000 0.422857
v -0.400000 0.320000 0.422857
v 0.457143 0.177142 0.411428
v -0.457142 0.177142 0.411428
v 0.411429 0.177142 0.491428
v -0.411428 0.177142 0.491428
v 0.342858 0.177142 0.554286
v -0.342857 0.177142 0.554286
v 0.348571 0.177142 0.565714
v -0.348571 0.177142 0.565714
v 0.325714 0.245714 0.571428
v -0.325714 0.245714 0.571428
v 0.257143 0.274286 0.588571
v -0.257143 0.274286 0.588571
v 0.194286 0.245714 0.600000
v -0.194285 0.245714 0.600000
v 0.165714 0.177142 0.600000
v -0.165714 0.177142 0.600000
v 0.194286 0.114286 0.600000
v -0.194285 0.114286 0.600000
v 0.257143 0.177142 0.605714
v -0.257143 0.177142 0.605714
v 0.257143 0.085714 0.588571
v -0.257143 0.085714 0.588571
v 0.325714 0.114286 0.571428
v -0.325714 0.114286 0.571428
v 0.000000 0.314285 0.542857
v 0.000000 0.257142 0.600000
v 0.000000 -0.497143 0.537142
v 0.000000 -0.234286 0.571428
v 0.000000 -0.137143 0.582857
v 0.000000 -0.565715 0.525714
v 0.000000 0.297143 0.440000
v 0.000000 0.417142 0.417143
v 0.000000 0.657142 -0.400000
v 0.000000 0.411429 -0.622857
v 0.000000 0.051428 -0.605715
v 0.000000 -0.280000 -0.257143
v 0.148572 -0.137143 0.411428
v -0.148571 -0.137143 0.411428
v 0.228572 -0.320000 0.417143
v -0.228571 -0.320000 0.417143
v 0.257143 -0.508572 0.417143
v -0.257143 -0.508572 0.417143
v 0.268571 -0.651429 0.388571
v -0.268571 -0.651429 0.388571
v 0.240000 -0.691429 0.382857
v -0.240000 -0.691429 0.382857
v 0.131429 -0.708571 0.405714
v -0.131429 -0.708571 0.405714
v 0.000000 -0.720000 0.422857
v 0.320000 -0.102857 0.388571
v -0.320000 -0.102857 0.388571
v 0.462857 -0.028572 0.394286
v -0.462857 -0.028572 0.394286
v 0.605715 0.108571 0.325714
v -0.605714 0.108571 0.325714
v 0.628572 0.314285 0.434285
v -0.628571 0.314285 0.434285
v 0.520000 0.354286 0.457142
v -0.520000 0.354286 0.457142
v 0.360000 0.440000 0.502857
v -0.360000 0.440000 0.502857
v 0.234286 0.554285 0.537142
v -0.234286 0.554285 0.537142
v 0.114286 0.525714 0.554286
v -0.114285 0.525714 0.554286
v 0.045715 0.360000 0.548571
v -0.045714 0.360000 0.548571
v 0.120000 0.302857 0.565714
v -0.120000 0.302857 0.565714
v 0.091429 0.222857 0.560000
v -0.091428 0.222857 0.560000
v 0.148572 0.068571 0.542857
v -0.148571 0.068571 0.542857
v 0.274286 0.011429 0.514285
v -0.274285 0.011429 0.514285
v 0.360000 0.045714 0.491428
v -0.360000 0.045714 0.491428
v 0.457143 0.137143 0.474286
v -0.457142 0.137143 0.474286
v 0.468572 0.217143 0.474286
v -0.468571 0.217143 0.474286
v 0.440000 0.274286 0.485714
v -0.440000 0.274286 0.485714
v 0.314286 0.320000 0.525714
v -0.314286 0.320000 0.525714
v 0.182858 0.342857 0.554286
v -0.182857 0.342857 0.554286
v 0.000000 -0.560000 0.537142
v 0.080000 -0.525714 0.537142
v -0.080000 -0.525714 0.537142
v 0.085714 -0.611429 0.520000
v -0.085714 -0.611429 0.520000
v 0.045715 -0.645715 0.508571
v -0.045714 -0.645715 0.508571
v 0.000000 -0.651429 0.502857
v 0.000000 -0.142858 0.548571
v 0.000000 -0.102857 0.542857
v 0.074286 -0.108572 0.542857
v -0.074286 -0.108572 0.542857
v 0.091429 -0.165715 0.548571
v -0.091428 -0.165715 0.548571
v 0.062857 -0.211429 0.542857
v -0.062857 -0.211429 0.542857
v 0.291429 -0.034286 0.491428
v -0.291429 -0.034286 0.491428
v 0.451429 0.040000 0.457142
v -0.451429 0.040000 0.457142
v 0.531429 0.148571 0.440000
v -0.531429 0.148571 0.440000
v 0.542857 0.274286 0.480000
v -0.542857 0.274286 0.480000
v 0.502858 0.302857 0.531429
v -0.502857 0.302857 0.531429
v 0.320000 0.400000 0.582857
v -0.320000 0.400000 0.582857
v 0.228572 0.468571 0.611429
v -0.228571 0.468571 0.611429
v 0.148572 0.451428 0.622857
v -0.148571 0.451428 0.622857
v 0.074286 0.314285 0.617142
v -0.074286 0.314285 0.617142
v 0.091429 -0.074286 0.594285
v -0.091428 -0.074286 0.594285
v 0.154286 -0.325715 0.520000
v -0.154286 -0.325715 0.520000
v 0.182858 -0.514286 0.502857
v -0.182857 -0.514286 0.502857
v 0.194286 -0.600000 0.485714
v -0.194285 -0.600000 0.485714
v 0.171429 -0.668572 0.462857
v -0.171428 -0.668572 0.462857
v 0.120000 -0.680000 0.462857
v -0.120000 -0.680000 0.462857
v 0.000000 -0.691429 0.468571
v 0.000000 0.034286 0.531429
v 0.000000 0.154285 0.560000
v 0.240000 0.348571 0.542857
v -0.240000 0.348571 0.542857
v 0.120000 0.102857 0.548571
v -0.120000 0.102857 0.548571
v 0.097143 0.154285 0.554286
v -0.097143 0.154285 0.554286
v 0.085714 -0.502857 0.537142
v -0.085714 -0.502857 0.537142
v 0.057143 -0.325715 0.548571
v -0.057142 -0.325715 0.548571
v 0.000000 -0.325715 0.548571
v 0.000000 -0.240000 0.542857
v 0.068572 -0.200000 0.571428
v -0.068571 -0.200000 0.571428
v 0.097143 -0.165715 0.582857
v -0.097143 -0.165715 0.582857
v 0.080000 -0.097143 0.571428
v -0.080000 -0.097143 0.571428
v 0.028571 -0.091429 0.571428
v -0.028571 -0.091429 0.571428
v 0.000000 -0.148571 0.605714
v 0.034286 -0.108572 0.594285
v -0.034285 -0.108572 0.594285
v 0.068572 -0.114286 0.594285
v -0.068571 -0.114286 0.594285
v 0.080000 -0.165715 0.605714
v -0.080000 -0.165715 0.605714
v 0.057143 -0.182857 0.588571
v -0.057142 -0.182857 0.588571
v 0.000000 -0.211429 0.588571
v 0.188571 -0.228571 0.405714
v -0.188571 -0.228571 0.405714
v 0.120000 -0.177143 0.520000
v -0.120000 -0.177143 0.520000
v 0.131429 -0.228571 0.520000
v -0.131429 -0.228571 0.520000
v 0.171429 -0.182857 0.405714
v -0.171428 -0.182857 0.405714
v 0.000000 -0.640000 0.502857
v 0.034286 -0.634286 0.502857
v -0.034285 -0.634286 0.502857
v 0.068572 -0.600000 0.520000
v -0.068571 -0.600000 0.520000
v 0.068572 -0.542858 0.531429
v -0.068571 -0.542858 0.531429
v 0.000000 -0.571429 0.480000
v 0.068572 -0.548571 0.485714
v -0.068571 -0.548571 0.485714
v 0.068572 -0.594286 0.468571
v -0.068571 -0.594286 0.468571
v 0.034286 -0.622858 0.462857
v -0.034285 -0.622858 0.462857
v 0.000000 -0.628571 0.462857
v 0.125715 0.160000 0.571428
v -0.125714 0.160000 0.571428
v 0.137143 0.114286 0.565714
v -0.137142 0.114286 0.565714
v 0.245714 0.314285 0.554286
v -0.245714 0.314285 0.554286
v 0.200000 0.308571 0.565714
v -0.200000 0.308571 0.565714
v 0.308572 0.291428 0.565714
v -0.308571 0.291428 0.565714
v 0.411429 0.257142 0.508571
v -0.411428 0.257142 0.508571
v 0.428571 0.211428 0.502857
v -0.428571 0.211428 0.502857
v 0.422858 0.142857 0.497143
v -0.422857 0.142857 0.497143
v 0.348571 0.074285 0.525714
v -0.348571 0.074285 0.525714
v 0.274286 0.045714 0.542857
v -0.274285 0.045714 0.542857
v 0.165714 0.080000 0.571428
v -0.165714 0.080000 0.571428
v 0.131429 0.217143 0.571428
v -0.131429 0.217143 0.571428
v 0.154286 0.274286 0.571428
v -0.154286 0.274286 0.571428
v 0.171429 0.262857 0.554286
v -0.171428 0.262857 0.554286
v 0.142857 0.217143 0.554286
v -0.142857 0.217143 0.554286
v 0.177143 0.091429 0.554286
v -0.177143 0.091429 0.554286
v 0.274286 0.062857 0.531429
v -0.274285 0.062857 0.531429
v 0.337143 0.085714 0.514285
v -0.337143 0.085714 0.514285
v 0.400000 0.154285 0.491428
v -0.400000 0.154285 0.491428
v 0.405714 0.205714 0.491428
v -0.405714 0.205714 0.491428
v 0.388572 0.245714 0.497143
v -0.388571 0.245714 0.497143
v 0.302857 0.285714 0.548571
v -0.302857 0.285714 0.548571
v 0.205715 0.291428 0.560000
v -0.205714 0.291428 0.560000
v 0.245714 0.297143 0.548571
v -0.245714 0.297143 0.548571
v 0.148572 0.125714 0.548571
v -0.148571 0.125714 0.548571
v 0.142857 0.165714 0.548571
v -0.142857 0.165714 0.548571
v 0.080000 0.337142 0.445714
v -0.080000 0.337142 0.445714
v 0.142857 0.485714 0.451429
v -0.142857 0.485714 0.451429
v 0.245714 0.502857 0.434285
v -0.245714 0.502857 0.434285
v 0.354286 0.405714 0.405714
v -0.354285 0.405714 0.405714
v 0.497143 0.331429 0.360000
v -0.497143 0.331429 0.360000
v 0.582858 0.297143 0.337143
v -0.582857 0.297143 0.337143
v 0.565714 0.120000 0.274285
v -0.565714 0.120000 0.274285
v 0.440000 0.000000 0.302857
v -0.440000 0.000000 0.302857
v 0.320000 -0.068571 0.342857
v -0.320000 -0.068571 0.342857
v 0.000000 0.657142 0.211429
v 0.000000 0.720000 -0.057143
v 0.000000 -0.142858 -0.491429
v 0.000000 -0.337143 0.137142
v 0.000000 -0.714286 0.337143
v 0.000000 -0.588572 0.251428
v 0.000000 -0.417143 0.234286
v 0.000000 -0.354286 0.205714
v 0.622857 0.171429 0.040000
v -0.622857 0.171429 0.040000
v 0.628572 0.234285 -0.034286
v -0.628571 0.234285 -0.034286
v 0.565714 0.194286 -0.320000
v -0.565714 0.194286 -0.320000
v 0.337143 0.320000 -0.514286
v -0.337143 0.320000 -0.514286
v 0.537143 -0.034286 0.051429
v -0.537142 -0.034286 0.051429
v 0.434286 -0.091429 -0.120000
v -0.434285 -0.091429 -0.120000
v 0.468572 -0.005715 -0.314286
v -0.468571 -0.005715 -0.314286
v 0.245714 0.040000 -0.485714
v -0.245714 0.040000 -0.485714
v 0.171429 -0.257143 0.297142
v -0.171428 -0.257143 0.297142
v 0.131429 -0.302858 0.188571
v -0.131429 -0.302858 0.188571
v 0.211429 -0.520000 0.280000
v -0.211429 -0.520000 0.280000
v 0.182858 -0.365714 0.285714
v -0.182857 -0.365714 0.285714
v 0.240000 -0.668572 0.291429
v -0.240000 -0.668572 0.291429
v 0.102858 -0.554286 0.268571
v -0.102857 -0.554286 0.268571
v 0.091429 -0.394286 0.262857
v -0.091428 -0.394286 0.262857
v 0.120000 -0.691429 0.320000
v -0.120000 -0.691429 0.320000
v 0.160000 -0.205714 0.314286
v -0.160000 -0.205714 0.314286
v 0.154286 -0.165715 0.342857
v -0.154286 -0.165715 0.342857
v 0.148572 -0.125714 0.365714
v -0.148571 -0.125714 0.365714
v 0.154286 -0.285714 0.120000
v -0.154286 -0.285714 0.120000
v 0.217143 -0.228571 -0.194286
v -0.217142 -0.228571 -0.194286
v 0.251429 -0.108572 -0.394286
v -0.251428 -0.108572 -0.394286
v 0.331429 0.634285 -0.280000
v -0.331428 0.634285 -0.280000
v 0.331429 0.680000 -0.051429
v -0.331428 0.680000 -0.051429
v 0.331429 0.622857 0.171428
v -0.331428 0.622857 0.171428
v 0.337143 0.382857 0.314286
v -0.337143 0.382857 0.314286
v 0.531429 0.297143 0.245714
v -0.531429 0.297143 0.245714
v 0.462857 0.331429 0.205714
v -0.462857 0.331429 0.205714
v 0.468572 0.514286 0.040000
v -0.468571 0.514286 0.040000
v 0.582858 0.411429 0.091428
v -0.582857 0.411429 0.091428
v 0.582858 0.451428 -0.085714
v -0.582857 0.451428 -0.085714
v 0.468572 0.548571 -0.142857
v -0.468571 0.548571 -0.142857
v 0.468572 0.497142 -0.325714
v -0.468571 0.497142 -0.325714
v 0.582858 0.394285 -0.262858
v -0.582857 0.394285 -0.262858
v 0.451429 0.240000 -0.428571
v -0.451429 0.240000 -0.428571
v 0.354286 0.017142 -0.400000
v -0.354285 0.017142 -0.400000
v 0.600000 0.240000 -0.148572
v -0.600000 0.240000 -0.148572
v 0.297143 -0.125714 0.108571
v -0.297142 -0.125714 0.108571
v 0.314286 -0.142858 -0.154286
v -0.314286 -0.142858 -0.154286
v 0.651429 0.297143 -0.171429
v -0.651428 0.297143 -0.171429
v 0.565714 -0.102857 -0.091429
v -0.565714 -0.102857 -0.091429
v 0.760000 -0.074286 -0.240000
v -0.760000 -0.074286 -0.240000
v 0.937143 0.040000 -0.314286
v -0.937142 0.040000 -0.314286
v 0.988571 0.234285 -0.308572
v -0.988571 0.234285 -0.308572
v 0.902858 0.371428 -0.308572
v -0.902857 0.371428 -0.308572
v 0.748571 0.348571 -0.228572
v -0.748571 0.348571 -0.228572
v 0.742858 0.302857 -0.211429
v -0.742857 0.302857 -0.211429
v 0.868572 0.320000 -0.285715
v -0.868571 0.320000 -0.285715
v 0.925715 0.211428 -0.297143
v -0.925714 0.211428 -0.297143
v 0.885714 0.057143 -0.297143
v -0.885714 0.057143 -0.297143
v 0.754286 -0.028572 -0.222857
v -0.754285 -0.028572 -0.222857
v 0.605715 -0.051429 -0.097143
v -0.605714 -0.051429 -0.097143
v 0.674286 0.262857 -0.160000
v -0.674285 0.262857 -0.160000
v 0.691429 0.222857 -0.211429
v -0.691429 0.222857 -0.211429
v 0.645714 -0.017143 -0.154286
v -0.645714 -0.017143 -0.154286
v 0.760000 0.000000 -0.268571
v -0.760000 0.000000 -0.268571
v 0.868572 0.068571 -0.325714
v -0.868571 0.068571 -0.325714
v 0.902858 0.182857 -0.325714
v -0.902857 0.182857 -0.325714
v 0.857143 0.262857 -0.320000
v -0.857142 0.262857 -0.320000
v 0.748571 0.251429 -0.262858
v -0.748571 0.251429 -0.262858
v 0.617143 0.211428 -0.154286
v -0.617142 0.211428 -0.154286
v 0.611429 0.125714 -0.200000
v -0.611429 0.125714 -0.200000
v 0.554286 0.068571 -0.200000
v -0.554286 0.068571 -0.200000
v 0.600000 0.062857 -0.200000
v -0.600000 0.062857 -0.200000
v 0.617143 0.011429 -0.200000
v -0.617142 0.011429 -0.200000
v 0.594286 -0.011429 -0.200000
v -0.594285 -0.011429 -0.200000
v 0.531429 0.000000 -0.051429
v -0.531429 0.000000 -0.051429
v 0.525715 -0.017143 -0.125715
v -0.525714 -0.017143 -0.125715
v 0.525715 0.028571 -0.137143
v -0.525714 0.028571 -0.137143
v 0.582858 0.148571 -0.154286
v -0.582857 0.148571 -0.154286
v 0.651429 0.177142 -0.194286
v -0.651428 0.177142 -0.194286
v 0.651429 0.171429 -0.234286
v -0.651428 0.171429 -0.234286
v 0.594286 -0.011429 -0.234286
v -0.594285 -0.011429 -0.234286
v 0.622857 0.011429 -0.234286
v -0.622857 0.011429 -0.234286
v 0.605715 0.057143 -0.234286
v -0.605714 0.057143 -0.234286
v 0.560000 0.068571 -0.234286
v -0.560000 0.068571 -0.234286
v 0.617143 0.125714 -0.234286
v -0.617142 0.125714 -0.234286
v 0.760000 0.240000 -0.302857
v -0.760000 0.240000 -0.302857
v 0.868572 0.251429 -0.354286
v -0.868571 0.251429 -0.354286
v 0.920000 0.177142 -0.360000
v -0.920000 0.177142 -0.360000
v 0.885714 0.062857 -0.354286
v -0.885714 0.062857 -0.354286
v 0.765715 0.000000 -0.308572
v -0.765714 0.000000 -0.308572
v 0.645714 -0.011429 -0.194286
v -0.645714 -0.011429 -0.194286
v 0.697143 0.211428 -0.251429
v -0.697142 0.211428 -0.251429
v 0.651429 0.080000 -0.240000
v -0.651428 0.080000 -0.240000
v 0.685715 0.045714 -0.245714
v -0.685714 0.045714 -0.245714
v 0.731429 0.091429 -0.268571
v -0.731428 0.091429 -0.268571
v 0.702857 0.125714 -0.257143
v -0.702857 0.125714 -0.257143
v 0.742858 0.171429 -0.274286
v -0.742857 0.171429 -0.274286
v 0.771429 0.137143 -0.280000
v -0.771429 0.137143 -0.280000
v 0.811429 0.154285 -0.285715
v -0.811428 0.154285 -0.285715
v 0.794286 0.200000 -0.285715
v -0.794286 0.200000 -0.285715
v 0.748571 0.320000 -0.354286
v -0.748571 0.320000 -0.354286
v 0.914286 0.342857 -0.400000
v -0.914285 0.342857 -0.400000
v 1.000000 0.217143 -0.365715
v -1.000000 0.217143 -0.365715
v 0.960000 0.040000 -0.388572
v -0.960000 0.040000 -0.388572
v 0.760000 -0.062858 -0.360000
v -0.760000 -0.062858 -0.360000
v 0.577143 -0.091429 -0.240000
v -0.577143 -0.091429 -0.240000
v 0.628572 0.280000 -0.280000
v -0.628571 0.280000 -0.280000

f 1 3 45 47
f 2 48 46 4
f 3 5 43 45
f 4 46 44 6
f 9 7 5 3
f 10 4 6 8
f 11 9 3 1
f 12 2 4 10
f 13 15 9 11
f 14 12 10 16
f 15 17 7 9
f 16 10 8 18
f 21 19 17 15
f 22 16 18 20
f 23 21 15 13
f 24 14 16 22
f 25 27 21 23
f 26 24 22 28
f 27 29 19 21
f 28 22 20 30
f 33 31 29 27
f 34 28 30 32
f 35 33 27 25
f 36 26 28 34
f 37 39 33 35
f 38 36 34 40
f 39 41 31 33
f 40 34 32 42
f 45 43 41 39
f 46 40 42 44
f 47 45 39 37
f 48 38 40 46
f 37 51 49 47
f 38 48 50 52
f 35 53 51 37
f 36 38 52 54
f 25 55 53 35
f 26 36 54 56
f 23 57 55 25
f 24 26 56 58
f 13 59 57 23
f 14 24 58 60
f 11 63 59 13
f 12 14 60 64
f 1 65 63 11
f 2 12 64 66
f 47 49 65 1
f 48 2 66 50
f 65 49 61
f 66 62 50
f 65 61 63
f 66 64 62
f 59 63 61
f 60 62 64
f 57 59 61
f 58 62 60
f 55 57 61
f 56 62 58
f 53 55 61
f 54 62 56
f 51 53 61
f 52 62 54
f 49 51 61
f 50 62 52
f 174 176 91 89
f 175 90 91 176
f 172 174 89 87
f 173 88 90 175
f 170 172 87 85
f 171 86 88 173
f 168 170 85 83
f 169 84 86 171
f 166 168 83 81
f 167 82 84 169
f 92 146 164 79
f 93 80 165 147
f 94 148 146 92
f 95 93 147 149
f 96 150 148 94
f 97 95 149 151
f 98 152 150 96
f 99 97 151 153
f 100 154 152 98
f 101 99 153 155
f 102 156 154 100
f 103 101 155 157
f 104 158 156 102
f 105 103 157 159
f 106 160 158 104
f 107 105 159 161
f 108 162 160 106
f 109 107 161 163
f 67 68 162 108
f 67 109 163 68
f 128 160 162 110
f 129 111 163 161
f 179 158 160 128
f 180 129 161 159
f 156 158 179 126
f 157 127 180 159
f 154 156 126 124
f 155 125 127 157
f 152 154 124 122
f 153 123 125 155
f 150 152 122 120
f 151 121 123 153
f 148 150 120 118
f 149 119 121 151
f 146 148 118 116
f 147 117 119 149
f 164 146 116 114
f 165 115 117 147
f 181 177 164 114
f 182 115 165 177
f 162 68 112 110
f 163 111 113 68
f 68 178 183 112
f 68 113 184 178
f 181 183 178 177
f 182 177 178 184
f 137 176 174 135
f 137 136 175 176
f 135 174 172 133
f 136 134 173 175
f 133 172 170 131
f 134 132 171 173
f 187 185 168 166
f 188 167 169 186
f 170 168 185 131
f 171 132 186 169
f 190 189 187 144
f 190 145 188 189
f 187 189 69 185
f 188 186 69 189
f 131 185 69 130
f 132 130 69 186
f 193 191 144 142
f 194 143 145 192
f 195 193 142 140
f 196 141 143 194
f 197 195 140 139
f 198 139 141 196
f 71 197 139 138
f 71 138 139 198
f 144 191 70 190
f 145 190 70 192
f 191 206 208 70
f 192 70 208 207
f 199 200 197 71
f 199 71 198 201
f 200 202 195 197
f 201 198 196 203
f 202 204 193 195
f 203 196 194 205
f 204 206 191 193
f 205 194 192 207
f 204 202 200 199
f 205 199 201 203
f 208 206 204 199
f 208 199 205 207
f 140 164 177 139
f 141 139 177 165
f 142 211 164 140
f 143 141 165 212
f 144 213 211 142
f 145 143 212 214
f 187 166 213 144
f 188 145 214 167
f 209 213 166 81
f 210 82 167 214
f 215 211 213 209
f 216 210 214 212
f 164 211 215 79
f 165 80 216 212
f 130 72 222 131
f 130 132 223 72
f 131 222 220 133
f 132 134 221 223
f 133 220 218 135
f 134 136 219 221
f 135 218 217 137
f 136 137 217 219
f 218 229 231 217
f 219 217 231 230
f 220 227 229 218
f 221 219 230 228
f 222 225 227 220
f 223 221 228 226
f 72 224 225 222
f 72 223 226 224
f 231 229 225 224
f 231 224 226 230
f 229 227 225
f 230 226 228
f 181 234 232 183
f 182 184 233 235
f 183 232 254 112
f 184 113 255 233
f 112 254 256 110
f 113 111 257 255
f 114 252 234 181
f 115 182 235 253
f 116 250 252 114
f 117 115 253 251
f 118 248 250 116
f 119 117 251 249
f 120 246 248 118
f 121 119 249 247
f 122 244 246 120
f 123 121 247 245
f 124 242 244 122
f 125 123 245 243
f 126 240 242 124
f 127 125 243 241
f 179 236 240 126
f 180 127 241 237
f 128 238 236 179
f 129 180 237 239
f 110 256 238 128
f 111 129 239 257
f 256 258 276 238
f 257 239 277 259
f 238 276 278 236
f 239 237 279 277
f 236 278 274 240
f 237 241 275 279
f 240 274 272 242
f 241 243 273 275
f 242 272 270 244
f 243 245 271 273
f 244 270 268 246
f 245 247 269 271
f 246 268 266 248
f 247 249 267 269
f 248 266 264 250
f 249 251 265 267
f 250 264 262 252
f 251 253 263 265
f 252 262 280 234
f 253 235 281 263
f 254 260 258 256
f 255 257 259 261
f 232 282 260 254
f 233 255 261 283
f 234 280 282 232
f 235 233 283 281
f 108 284 73 67
f 109 67 73 285
f 106 286 284 108
f 107 109 285 287
f 104 288 286 106
f 105 107 287 289
f 102 290 288 104
f 103 105 289 291
f 100 292 290 102
f 101 103 291 293
f 98 294 292 100
f 99 101 293 295
f 96 296 294 98
f 97 99 295 297
f 94 298 296 96
f 95 97 297 299
f 92 300 298 94
f 93 95 299 301
f 309 328 338 308
f 309 308 339 329
f 308 338 336 307
f 308 307 337 339
f 307 336 340 306
f 307 306 341 337
f 91 306 340 89
f 91 90 341 306
f 89 340 334 87
f 90 88 335 341
f 87 334 330 85
f 88 86 331 335
f 85 330 332 83
f 86 84 333 331
f 336 338 332 330
f 337 331 333 339
f 334 340 336 330
f 335 331 337 341
f 332 338 328 326
f 333 327 329 339
f 83 332 326 81
f 84 82 327 333
f 342 344 215 209
f 343 210 216 345
f 326 342 209 81
f 327 82 210 343
f 215 344 346 79
f 216 80 347 345
f 346 300 92 79
f 347 80 93 301
f 324 352 304 77
f 325 77 304 353
f 352 350 78 304
f 353 304 78 351
f 350 348 305 78
f 351 78 305 349
f 348 328 309 305
f 349 305 309 329
f 328 348 342 326
f 329 327 343 349
f 298 318 310 296
f 299 297 311 319
f 316 324 77 76
f 317 76 77 325
f 358 356 303 302
f 359 302 303 357
f 356 354 75 303
f 357 303 75 355
f 354 316 76 75
f 355 75 76 317
f 294 362 364 292
f 295 293 365 363
f 362 368 366 364
f 363 365 367 369
f 368 370 372 366
f 369 367 373 371
f 370 376 374 372
f 371 373 375 377
f 378 374 376 314
f 379 315 377 375
f 354 374 378 316
f 355 317 379 375
f 356 372 374 354
f 357 355 375 373
f 358 366 372 356
f 359 357 373 367
f 360 364 366 358
f 361 359 367 365
f 292 364 360 290
f 293 291 361 365
f 360 358 302 74
f 361 74 302 359
f 286 288 290 284
f 287 285 291 289
f 290 360 74 284
f 291 285 74 361
f 284 74 73
f 285 73 74
f 296 310 362 294
f 297 295 363 311
f 312 368 362 310
f 313 311 363 369
f 382 370 368 312
f 383 313 369 371
f 376 370 382 314
f 377 315 383 371
f 350 386 384 348
f 351 349 385 387
f 384 386 320 318
f 385 319 321 387
f 300 384 318 298
f 301 299 319 385
f 344 342 384 300
f 345 301 385 343
f 348 384 342
f 349 343 385
f 346 344 300
f 347 301 345
f 322 380 378 314
f 323 315 379 381
f 378 380 324 316
f 379 317 325 381
f 386 380 322 320
f 387 321 323 381
f 352 380 386 350
f 353 351 387 381
f 380 352 324
f 381 325 353
f 388 414 402 400
f 389 401 403 415
f 402 404 398 400
f 403 401 399 405
f 404 406 396 398
f 405 399 397 407
f 406 408 394 396
f 407 397 395 409
f 408 410 392 394
f 409 395 393 411
f 410 412 390 392
f 411 393 391 413
f 420 418 412 410
f 421 411 413 419
f 422 420 410 408
f 423 409 411 421
f 424 422 408 406
f 425 407 409 423
f 426 424 406 404
f 427 405 407 425
f 428 426 404 402
f 429 403 405 427
f 414 416 428 402
f 415 403 429 417
f 320 444 442 318
f 321 319 443 445
f 390 412 444 320
f 391 321 445 413
f 318 442 312 310
f 319 311 313 443
f 430 414 388 382
f 431 383 389 415
f 418 440 444 412
f 419 413 445 441
f 446 444 440 438
f 447 439 441 445
f 446 438 436 434
f 447 435 437 439
f 448 446 434 432
f 449 433 435 447
f 448 432 450 430
f 449 431 451 433
f 430 450 416 414
f 431 415 417 451
f 448 430 382 312
f 449 313 383 431
f 442 446 448 312
f 443 313 449 447
f 444 446 442
f 445 443 447
f 450 452 476 416
f 451 417 477 453
f 432 462 452 450
f 433 451 453 463
f 434 460 462 432
f 435 433 463 461
f 436 458 460 434
f 437 435 461 459
f 438 456 458 436
f 439 437 459 457
f 440 454 456 438
f 441 439 457 455
f 418 474 454 440
f 419 441 455 475
f 416 476 464 428
f 417 429 465 477
f 428 464 466 426
f 429 427 467 465
f 426 466 468 424
f 427 425 469 467
f 424 468 470 422
f 425 423 471 469
f 422 470 472 420
f 423 421 473 471
f 420 472 474 418
f 421 419 475 473
f 456 480 478 458
f 457 459 479 481
f 480 482 484 478
f 481 479 485 483
f 482 488 486 484
f 483 485 487 489
f 488 490 492 486
f 489 487 493 491
f 476 486 492 464
f 477 465 493 487
f 484 486 476 452
f 485 453 477 487
f 462 478 484 452
f 463 453 485 479
f 478 462 460 458
f 479 459 461 463
f 474 480 456 454
f 475 455 457 481
f 482 480 474 472
f 483 473 475 481
f 488 482 472 470
f 489 471 473 483
f 490 488 470 468
f 491 469 471 489
f 492 490 468 466
f 493 467 469 491
f 492 466 464
f 493 465 467
f 390 504 502 392
f 391 393 503 505
f 392 502 500 394
f 393 395 501 503
f 394 500 498 396
f 395 397 499 501
f 396 498 496 398
f 397 399 497 499
f 398 496 494 400
f 399 401 495 497
f 400 494 506 388
f 401 389 507 495
f 502 504 506 494
f 503 495 507 505
f 496 500 502 494
f 497 495 503 501
f 498 500 496
f 499 497 501
f 382 388 506 314
f 383 315 507 389
f 506 504 322 314
f 507 315 323 505
f 322 504 390 320
f 323 321 391 505
